<svg xmlns="http://www.w3.org/2000/svg" viewBox="0 0 60 60" fill="none">
  <defs>
    <linearGradient id="ng" x1="0" y1="0" x2="60" y2="60" gradientUnits="userSpaceOnUse">
      <stop offset="0%" stop-color="#00D4FF"/>
      <stop offset="50%" stop-color="#4A6CF7"/>
      <stop offset="100%" stop-color="#8B3FDB"/>
    </linearGradient>
  </defs>
  <circle cx="30" cy="30" r="7" stroke="url(#ng)" stroke-width="2.5" fill="none"/>
  <circle cx="30" cy="30" r="3" fill="url(#ng)"/>
  <line x1="30" y1="23" x2="30" y2="10" stroke="url(#ng)" stroke-width="2" stroke-linecap="round"/>
  <circle cx="30" cy="8" r="3" fill="url(#ng)"/>
  <line x1="30" y1="37" x2="30" y2="50" stroke="url(#ng)" stroke-width="2" stroke-linecap="round"/>
  <circle cx="30" cy="52" r="3" fill="url(#ng)"/>
  <line x1="23" y1="30" x2="10" y2="30" stroke="url(#ng)" stroke-width="2" stroke-linecap="round"/>
  <circle cx="8" cy="30" r="3" fill="url(#ng)"/>
  <line x1="37" y1="30" x2="50" y2="30" stroke="url(#ng)" stroke-width="2" stroke-linecap="round"/>
  <circle cx="52" cy="30" r="3" fill="url(#ng)"/>
  <line x1="25" y1="25" x2="16" y2="16" stroke="url(#ng)" stroke-width="2" stroke-linecap="round"/>
  <circle cx="13.5" cy="13.5" r="3" fill="url(#ng)"/>
  <line x1="35" y1="35" x2="44" y2="44" stroke="url(#ng)" stroke-width="2" stroke-linecap="round"/>
  <circle cx="46.5" cy="46.5" r="3" fill="url(#ng)"/>
  <line x1="35" y1="25" x2="44" y2="16" stroke="url(#ng)" stroke-width="2" stroke-linecap="round"/>
  <circle cx="46.5" cy="13.5" r="3" fill="url(#ng)"/>
  <line x1="25" y1="35" x2="16" y2="44" stroke="url(#ng)" stroke-width="2" stroke-linecap="round"/>
  <circle cx="13.5" cy="46.5" r="3" fill="url(#ng)"/>
</svg>
